<svg width="18" height="16" viewBox="0 0 18 16" fill="none" xmlns="http://www.w3.org/2000/svg">
<path d="M16.1719 4.32617C16.875 3.79883 17.5078 3.16602 18 2.42773C17.3672 2.70898 16.6289 2.91992 15.8906 2.99023C16.6641 2.5332 17.2266 1.83008 17.5078 0.951172C16.8047 1.37305 15.9961 1.68945 15.1875 1.86523C14.4844 1.12695 13.5352 0.705078 12.4805 0.705078C10.4414 0.705078 8.78906 2.35742 8.78906 4.39648C8.78906 4.67773 8.82422 4.95898 8.89453 5.24023C5.83594 5.06445 3.09375 3.58789 1.26562 1.37305C0.949219 1.90039 0.773438 2.5332 0.773438 3.23633C0.773438 4.50195 1.40625 5.62695 2.42578 6.29492C1.82812 6.25977 1.23047 6.11914 0.738281 5.83789V5.87305C0.738281 7.66602 2.00391 9.14258 3.69141 9.49414C3.41016 9.56445 3.05859 9.63477 2.74219 9.63477C2.49609 9.63477 2.28516 9.59961 2.03906 9.56445C2.49609 11.041 3.86719 12.0957 5.48438 12.1309C4.21875 13.1152 2.63672 13.7129 0.914062 13.7129C0.597656 13.7129 0.316406 13.6777 0.0351562 13.6426C1.65234 14.6973 3.58594 15.2949 5.69531 15.2949C12.4805 15.2949 16.1719 9.70508 16.1719 4.81836C16.1719 4.64258 16.1719 4.50195 16.1719 4.32617Z" fill="white"/>
</svg>
