<svg width="17" height="18" viewBox="0 0 17 18" fill="none" xmlns="http://www.w3.org/2000/svg">
<path d="M10.7266 8.57812C10.7266 8.01562 10.3047 7.55859 9.8125 7.55859C9.28516 7.55859 8.86328 8.01562 8.86328 8.57812C8.86328 9.10547 9.28516 9.5625 9.8125 9.5625C10.3047 9.5625 10.7266 9.10547 10.7266 8.57812ZM6.50781 7.55859C6.01562 7.55859 5.59375 8.01562 5.59375 8.57812C5.59375 9.10547 6.01562 9.5625 6.50781 9.5625C7.03516 9.5625 7.42188 9.10547 7.42188 8.57812C7.45703 8.01562 7.03516 7.55859 6.50781 7.55859ZM16.0352 1.86328C16.0352 0.84375 15.1914 0 14.1719 0H2.11328C1.09375 0 0.285156 0.84375 0.285156 1.86328V14.0273C0.285156 15.082 1.09375 15.8906 2.11328 15.8906H12.3086L11.8516 14.2383C14.4883 16.6641 13.75 16.0312 16.0352 18V1.86328ZM13.4688 10.4062C13.4688 10.4062 12.6953 11.707 10.6914 11.7773C10.6914 11.7773 10.375 11.3906 10.0938 11.0391C11.2891 10.7227 11.7461 9.98438 11.7461 9.98438C11.3594 10.2305 11.0078 10.3711 10.6914 10.5117C8.75781 11.3203 6.61328 11.0391 5.06641 10.1953C5.06641 10.1602 4.85547 10.0547 4.71484 9.94922C4.71484 9.94922 5.13672 10.6875 6.29688 11.0391C6.01562 11.3555 5.69922 11.7773 5.69922 11.7773C3.69531 11.707 2.95703 10.4062 2.95703 10.4062C2.95703 7.48828 4.22266 5.16797 4.22266 5.16797C5.52344 4.18359 6.75391 4.21875 6.75391 4.21875L6.85938 4.32422C5.24219 4.78125 4.50391 5.48438 4.50391 5.48438C4.50391 5.48438 4.67969 5.37891 5.03125 5.23828C7.10547 4.32422 9.60156 4.32422 11.7461 5.48438C11.7461 5.48438 11.043 4.81641 9.49609 4.35938L9.63672 4.21875C9.63672 4.21875 10.8672 4.18359 12.168 5.16797C12.168 5.16797 13.4688 7.48828 13.4688 10.4062Z" fill="white"/>
</svg>
